<?xml version="1.0" encoding="UTF-8"?>
<!DOCTYPE svg PUBLIC "-//W3C//DTD SVG 1.1//EN" "http://www.w3.org/Graphics/SVG/1.1/DTD/svg11.dtd">
<!-- Creator: CorelDRAW 2019 (64-Bit) -->
<svg xmlns="http://www.w3.org/2000/svg" xml:space="preserve" width="510px" height="90px" version="1.1" style="shape-rendering:geometricPrecision; text-rendering:geometricPrecision; image-rendering:optimizeQuality; fill-rule:evenodd; clip-rule:evenodd"
viewBox="0 0 451.82 79.86"
 xmlns:xlink="http://www.w3.org/1999/xlink"
 xmlns:xodm="http://www.corel.com/coreldraw/odm/2003">
 <defs>
  <style type="text/css">
   <![CDATA[
    .fil6 {fill:black;fill-rule:nonzero}
    .fil4 {fill:url(#id0)}
    .fil1 {fill:url(#id1)}
    .fil5 {fill:url(#id2)}
    .fil3 {fill:url(#id3)}
    .fil2 {fill:url(#id4)}
    .fil0 {fill:url(#id5);fill-rule:nonzero}
   ]]>
  </style>
  <linearGradient id="id0" gradientUnits="userSpaceOnUse" x1="26.23" y1="28.24" x2="14.45" y2="1.91">
   <stop offset="0" style="stop-opacity:1; stop-color:#9B9C9E"/>
   <stop offset="1" style="stop-opacity:1; stop-color:#EEF0ED"/>
  </linearGradient>
  <linearGradient id="id1" gradientUnits="userSpaceOnUse" x1="38.65" y1="64.77" x2="38.89" y2="48.68">
   <stop offset="0" style="stop-opacity:1; stop-color:#949597"/>
   <stop offset="1" style="stop-opacity:1; stop-color:#4D4D4D"/>
  </linearGradient>
  <linearGradient id="id2" gradientUnits="userSpaceOnUse" x1="38.63" y1="58.72" x2="38.83" y2="79.86">
   <stop offset="0" style="stop-opacity:1; stop-color:#949597"/>
   <stop offset="1" style="stop-opacity:1; stop-color:#CDCDCD"/>
  </linearGradient>
  <linearGradient id="id3" gradientUnits="userSpaceOnUse" x1="33.64" y1="36.7" x2="26.51" y2="30.91">
   <stop offset="0" style="stop-opacity:1; stop-color:gray"/>
   <stop offset="1" style="stop-opacity:1; stop-color:#9D9D9E"/>
  </linearGradient>
  <linearGradient id="id4" gradientUnits="userSpaceOnUse" x1="69.37" y1="0.15" x2="34.1" y2="47.98">
   <stop offset="0" style="stop-opacity:1; stop-color:#949597"/>
   <stop offset="1" style="stop-opacity:1; stop-color:#E6E6E6"/>
  </linearGradient>
  <linearGradient id="id5" gradientUnits="userSpaceOnUse" x1="86.15" y1="5.18" x2="49.35" y2="63.25">
   <stop offset="0" style="stop-opacity:1; stop-color:gray"/>
   <stop offset="1" style="stop-opacity:1; stop-color:#E2E2E2"/>
  </linearGradient>
 </defs>
 <g id="Layer_x0020_1">
  <metadata id="CorelCorpID_0Corel-Layer"/>
  <g id="_2476784074400">
   <path class="fil0" d="M38.26 59.7c3.63,1.97 7.66,3.35 12.1,4.16 5.47,0.99 10.79,1.03 15.96,0.13 5.17,-0.9 9.86,-2.55 14.08,-4.96 4.22,-2.4 7.8,-5.48 10.72,-9.23 2.93,-3.75 4.87,-7.98 5.8,-12.69 0.93,-4.66 0.75,-9.22 -0.5,-13.7 -1.25,-4.47 -3.75,-8.31 -6.33,-12.32 -11.57,-18.02 -13.02,-7.96 -31.04,-10.74l-1.3 8.04c1.14,0.03 2.33,0.16 3.56,0.38 3.23,0.59 6.18,1.72 8.82,3.41 2.65,1.68 4.86,3.68 6.63,6 1.78,2.32 3.02,4.88 3.73,7.67 0.71,2.79 0.8,5.57 0.25,8.32 -0.55,2.76 -1.69,5.31 -3.42,7.66 -1.74,2.35 -3.87,4.29 -6.41,5.83 -2.54,1.53 -5.37,2.62 -8.48,3.26 -3.11,0.64 -6.28,0.67 -9.51,0.08 -3.74,-0.67 -6.87,-2.11 -9.37,-4.31 -0.09,-0.08 -0.18,-0.15 -0.26,-0.23l-5.03 13.24z"/>
   <path class="fil1" d="M30.02 46.52c6.44,3.08 12.24,2.67 17.62,0l0 17.34 -17.62 0 0 -17.34z"/>
   <path class="fil2" d="M79.62 0.15c-46.42,74.68 -39.26,61.29 -64.43,25.54 10.29,13.15 18.25,14.65 23.57,6.41l19.59 -31.95 21.27 0z"/>
   <path class="fil3" d="M14.12 24.21c11.38,15.22 19.75,17.02 24.78,7.67l-3.45 -5.56c-4.98,4.97 -12.39,4.05 -21.33,-2.11z"/>
   <path class="fil4" d="M15.02 25.54l-15.02 -25.33 19.4 -0.03 16.46 26.8c-5.8,5.35 -12.75,4.86 -20.84,-1.44z"/>
   <path class="fil5" d="M30.02 55.72c6.44,4.28 12.24,3.72 17.62,0l0 24.14 -17.62 0 0 -24.14z"/>
   <polygon class="fil6" points="178.94,17.6 173.28,32.98 173.28,44.05 169.06,44.05 169.06,32.98 163.4,17.6 167.9,17.6 171.17,27.69 174.52,17.6 "/>
   <polygon id="1" class="fil6" points="190.02,17.6 194.24,17.6 194.24,44.05 190.02,44.05 "/>
   <path id="2" class="fil6" d="M212.68 44.43c-1.32,0 -2.51,-0.28 -3.54,-0.83 -1.04,-0.56 -1.84,-1.33 -2.41,-2.31 -0.57,-0.98 -0.86,-2.1 -0.86,-3.36l0 -0.95 4.07 -0.41 0 0.98c0,0.96 0.23,1.71 0.71,2.27 0.48,0.55 1.15,0.83 2,0.83 0.82,0 1.48,-0.23 1.97,-0.68 0.49,-0.46 0.73,-1.07 0.73,-1.85 0,-0.86 -0.25,-1.68 -0.77,-2.46 -0.52,-0.78 -1.55,-1.86 -3.09,-3.25 -2.07,-1.86 -3.49,-3.41 -4.24,-4.64 -0.76,-1.24 -1.14,-2.59 -1.14,-4.05 0,-1.99 0.57,-3.57 1.71,-4.74 1.15,-1.17 2.71,-1.75 4.71,-1.75 1.99,0 3.55,0.59 4.7,1.77 1.14,1.19 1.71,2.77 1.71,4.76l0 0.68 -4.06 0.42 0 -0.76c0,-1.01 -0.2,-1.77 -0.6,-2.3 -0.4,-0.53 -0.97,-0.8 -1.71,-0.8 -0.75,0 -1.32,0.22 -1.72,0.65 -0.4,0.42 -0.6,1.05 -0.6,1.88 0,0.84 0.27,1.64 0.8,2.4 0.53,0.77 1.56,1.87 3.07,3.31 2.07,1.96 3.48,3.54 4.24,4.74 0.76,1.2 1.14,2.51 1.14,3.95 0,1.26 -0.29,2.38 -0.86,3.36 -0.57,0.98 -1.37,1.75 -2.41,2.31 -1.03,0.55 -2.22,0.83 -3.55,0.83z"/>
   <polygon id="3" class="fil6" points="231.05,17.6 243.05,17.6 243.05,21.38 235.28,21.38 235.28,28.75 241.45,28.75 241.45,32.53 235.28,32.53 235.28,40.27 243.05,40.27 243.05,44.05 231.05,44.05 "/>
   <polygon id="4" class="fil6" points="254.56,17.6 258.78,17.6 258.78,40.27 266.31,40.27 266.31,44.05 254.56,44.05 "/>
   <polygon id="5" class="fil6" points="277.55,17.6 281.77,17.6 281.77,40.27 289.3,40.27 289.3,44.05 277.55,44.05 "/>
   <path id="6" class="fil6" d="M316.48 17.6l6.61 0c2.02,0 3.62,0.58 4.82,1.72 1.2,1.15 1.79,2.68 1.79,4.59l0 3.1c0,1.91 -0.59,3.44 -1.79,4.59 -1.2,1.15 -2.8,1.72 -4.82,1.72l-2.39 0 0 10.73 -4.22 0 0 -26.45zm6.41 11.94c0.82,0 1.46,-0.21 1.91,-0.64 0.45,-0.43 0.68,-1.03 0.68,-1.81l0 -3.25c0,-0.78 -0.23,-1.39 -0.68,-1.82 -0.45,-0.42 -1.09,-0.64 -1.91,-0.64l-2.19 0 0 8.16 2.19 0z"/>
   <polygon id="7" class="fil6" points="341.22,17.6 353.21,17.6 353.21,21.38 345.44,21.38 345.44,28.75 351.61,28.75 351.61,32.53 345.44,32.53 345.44,40.27 353.21,40.27 353.21,44.05 341.22,44.05 "/>
   <path id="8" class="fil6" d="M374.21 44.05l-3.07 -10.92 -2.19 0 0 10.92 -4.23 0 0 -26.45 6.62 0c2.02,0 3.62,0.58 4.82,1.72 1.19,1.15 1.79,2.68 1.79,4.59l0 2.91c0,1.21 -0.25,2.28 -0.76,3.21 -0.5,0.94 -1.22,1.67 -2.15,2.19l3.55 11.83 -4.38 0zm-5.26 -14.7l2.19 0c0.82,0 1.46,-0.21 1.91,-0.64 0.45,-0.43 0.68,-1.03 0.68,-1.81l0 -3.06c0,-0.78 -0.23,-1.39 -0.68,-1.82 -0.45,-0.42 -1.09,-0.64 -1.91,-0.64l-2.19 0 0 7.97z"/>
   <path id="9" class="fil6" d="M396.44 44.43c-2.02,0 -3.65,-0.59 -4.9,-1.76 -1.25,-1.17 -1.87,-2.71 -1.87,-4.63l0 -14.43c0,-1.91 0.62,-3.46 1.87,-4.63 1.25,-1.17 2.88,-1.75 4.9,-1.75 2.02,0 3.65,0.58 4.9,1.75 1.25,1.17 1.87,2.72 1.87,4.63l0 14.43c0,1.92 -0.62,3.46 -1.87,4.63 -1.25,1.17 -2.88,1.76 -4.9,1.76zm0 -3.78c0.79,0 1.42,-0.23 1.87,-0.68 0.45,-0.46 0.68,-1.1 0.68,-1.93l0 -14.43c0,-0.83 -0.23,-1.47 -0.68,-1.93 -0.45,-0.45 -1.08,-0.68 -1.87,-0.68 -0.8,0 -1.42,0.23 -1.87,0.68 -0.46,0.46 -0.68,1.1 -0.68,1.93l0 14.43c0,0.83 0.22,1.47 0.68,1.93 0.45,0.45 1.07,0.68 1.87,0.68z"/>
   <polygon id="10" class="fil6" points="427.08,21 419.11,40.27 427.08,40.27 427.08,44.05 414.41,44.05 414.41,40.65 422.38,21.38 414.41,21.38 414.41,17.6 427.08,17.6 "/>
   <path id="11" class="fil6" d="M445.05 44.43c-2.02,0 -3.66,-0.59 -4.9,-1.76 -1.25,-1.17 -1.88,-2.71 -1.88,-4.63l0 -14.43c0,-1.91 0.63,-3.46 1.88,-4.63 1.24,-1.17 2.88,-1.75 4.9,-1.75 2.02,0 3.65,0.58 4.9,1.75 1.25,1.17 1.87,2.72 1.87,4.63l0 14.43c0,1.92 -0.62,3.46 -1.87,4.63 -1.25,1.17 -2.88,1.76 -4.9,1.76zm0 -3.78c0.79,0 1.42,-0.23 1.87,-0.68 0.45,-0.46 0.68,-1.1 0.68,-1.93l0 -14.43c0,-0.83 -0.23,-1.47 -0.68,-1.93 -0.45,-0.45 -1.08,-0.68 -1.87,-0.68 -0.8,0 -1.42,0.23 -1.88,0.68 -0.45,0.46 -0.67,1.1 -0.67,1.93l0 14.43c0,0.83 0.22,1.47 0.67,1.93 0.46,0.45 1.08,0.68 1.88,0.68z"/>
   <path class="fil6" d="M175.24 59.41l-8.5 0 -1.83 4.26 -1.68 0 6.97 -15.93 1.59 0 6.98 15.93 -1.7 0 -1.83 -4.26zm-0.59 -1.36l-3.66 -8.56 -3.67 8.56 7.33 0z"/>
   <path id="1" class="fil6" d="M191.72 63.67l-3.49 -5.12c-0.39,0.04 -0.8,0.07 -1.22,0.07l-4.1 0 0 5.05 -1.61 0 0 -15.93 5.71 0c1.95,0 3.47,0.49 4.58,1.46 1.1,0.97 1.65,2.3 1.65,4 0,1.24 -0.3,2.29 -0.9,3.15 -0.6,0.86 -1.47,1.48 -2.59,1.86l3.73 5.46 -1.76 0zm-4.76 -6.49c1.52,0 2.67,-0.35 3.47,-1.04 0.8,-0.7 1.2,-1.68 1.2,-2.94 0,-1.29 -0.4,-2.28 -1.2,-2.97 -0.8,-0.69 -1.95,-1.03 -3.47,-1.03l-4.05 0 0 7.98 4.05 0z"/>
   <path id="2" class="fil6" d="M203.68 63.8c-1.51,0 -2.87,-0.35 -4.08,-1.04 -1.22,-0.7 -2.17,-1.67 -2.86,-2.9 -0.69,-1.24 -1.03,-2.62 -1.03,-4.16 0,-1.53 0.34,-2.91 1.03,-4.15 0.69,-1.23 1.65,-2.2 2.87,-2.9 1.22,-0.7 2.59,-1.05 4.1,-1.05 1.13,0 2.18,0.2 3.14,0.6 0.96,0.39 1.77,0.97 2.44,1.73l-1.03 1.06c-1.19,-1.26 -2.69,-1.88 -4.51,-1.88 -1.21,0 -2.3,0.28 -3.29,0.86 -0.99,0.58 -1.76,1.37 -2.32,2.37 -0.56,1 -0.84,2.12 -0.84,3.36 0,1.25 0.28,2.37 0.84,3.37 0.56,1 1.33,1.79 2.32,2.37 0.99,0.57 2.08,0.86 3.29,0.86 1.83,0 3.34,-0.64 4.51,-1.91l1.03 1.07c-0.67,0.76 -1.49,1.34 -2.45,1.74 -0.97,0.4 -2.02,0.6 -3.16,0.6z"/>
   <polygon id="3" class="fil6" points="225.48,47.74 225.48,63.67 223.89,63.67 223.89,56.32 214.35,56.32 214.35,63.67 212.73,63.67 212.73,47.74 214.35,47.74 214.35,54.84 223.89,54.84 223.89,47.74 "/>
   <polygon id="4" class="fil6" points="230.45,47.74 232.07,47.74 232.07,63.67 230.45,63.67 "/>
   <polygon id="5" class="fil6" points="240,49.2 234.64,49.2 234.64,47.74 246.98,47.74 246.98,49.2 241.61,49.2 241.61,63.67 240,63.67 "/>
   <polygon id="6" class="fil6" points="260.34,62.21 260.34,63.67 249.55,63.67 249.55,47.74 260.01,47.74 260.01,49.2 251.16,49.2 251.16,54.86 259.05,54.86 259.05,56.29 251.16,56.29 251.16,62.21 "/>
   <path id="7" class="fil6" d="M270.67 63.8c-1.51,0 -2.87,-0.35 -4.09,-1.04 -1.21,-0.7 -2.16,-1.67 -2.85,-2.9 -0.69,-1.24 -1.04,-2.62 -1.04,-4.16 0,-1.53 0.35,-2.91 1.04,-4.15 0.69,-1.23 1.64,-2.2 2.86,-2.9 1.23,-0.7 2.59,-1.05 4.1,-1.05 1.14,0 2.18,0.2 3.14,0.6 0.96,0.39 1.78,0.97 2.44,1.73l-1.02 1.06c-1.19,-1.26 -2.7,-1.88 -4.51,-1.88 -1.21,0 -2.31,0.28 -3.29,0.86 -0.99,0.58 -1.77,1.37 -2.33,2.37 -0.56,1 -0.83,2.12 -0.83,3.36 0,1.25 0.27,2.37 0.83,3.37 0.56,1 1.34,1.79 2.33,2.37 0.98,0.57 2.08,0.86 3.29,0.86 1.83,0 3.33,-0.64 4.51,-1.91l1.02 1.07c-0.66,0.76 -1.48,1.34 -2.45,1.74 -0.96,0.4 -2.01,0.6 -3.15,0.6z"/>
   <polygon id="8" class="fil6" points="282.49,49.2 277.12,49.2 277.12,47.74 289.46,47.74 289.46,49.2 284.1,49.2 284.1,63.67 282.49,63.67 "/>
  </g>
 </g>
</svg>
